<?xml version="1.0" standalone="no"?>
<!DOCTYPE svg PUBLIC "-//W3C//DTD SVG 20010904//EN"
 "http://www.w3.org/TR/2001/REC-SVG-20010904/DTD/svg10.dtd">
<svg version="1.0" xmlns="http://www.w3.org/2000/svg"
 width="500.000000pt" height="500.000000pt" viewBox="0 0 500.000000 500.000000"
 preserveAspectRatio="xMidYMid meet">

<g transform="translate(0.000000,500.000000) scale(0.100000,-0.100000)"
fill="#000000" stroke="none">
<path d="M2180 4675 c-451 -69 -855 -270 -1170 -585 -804 -801 -824 -2070 -45
-2908 153 -165 385 -334 600 -437 161 -77 213 -97 379 -140 190 -49 322 -66
525 -66 496 0 924 150 1315 461 379 301 646 757 742 1270 21 114 30 448 15
576 -36 302 -144 611 -305 872 -199 320 -503 593 -851 764 -184 89 -346 142
-570 185 -115 22 -509 27 -635 8z m1358 -781 c62 -31 111 -91 143 -172 17 -44
23 -85 26 -182 l5 -125 -131 -389 c-72 -214 -134 -392 -137 -395 -4 -3 -4 201
-1 454 5 437 0 555 -23 555 -5 0 -18 -13 -30 -30 -32 -45 -424 -1197 -661
-1942 l-113 -358 -141 0 -141 0 -128 393 c-122 373 -556 1655 -609 1800 -14
38 -36 80 -49 94 l-23 25 -11 -49 c-8 -33 -10 -182 -6 -483 2 -239 2 -432 -2
-429 -4 4 -65 181 -136 395 -115 344 -130 396 -130 456 0 226 113 380 281 380
106 0 212 -73 285 -197 25 -43 270 -753 521 -1508 80 -241 146 -437 148 -435
1 2 48 147 105 323 126 396 523 1565 550 1620 11 22 41 67 68 100 94 118 226
156 340 99z m-2083 -1925 c118 -354 215 -647 215 -651 0 -5 -99 -8 -220 -8
l-220 0 0 657 c0 361 2 654 5 651 3 -3 102 -295 220 -649z m2255 -34 l0 -625
-211 0 c-165 0 -210 3 -207 13 3 6 97 288 209 625 112 336 205 612 206 612 2
0 3 -281 3 -625z"/>
</g>
</svg>
